<?xml version="1.0" ?><!DOCTYPE svg  PUBLIC '-//W3C//DTD SVG 1.1//EN'  'http://www.w3.org/Graphics/SVG/1.1/DTD/svg11.dtd'><svg enable-background="new 0 0 256 256" height="256px" id="Layer_1" version="1.1" viewBox="0 0 256 256" width="256px" xml:space="preserve" xmlns="http://www.w3.org/2000/svg" xmlns:xlink="http://www.w3.org/1999/xlink"><g><circle cx="128.063" cy="127.926" r="123.39"/><linearGradient gradientUnits="userSpaceOnUse" id="SVGID_1_" x1="68.5605" x2="187.5645" y1="230.9863" y2="24.8655"><stop offset="0" style="stop-color:#2E7CBC"/><stop offset="1" style="stop-color:#6ADEFF"/></linearGradient><path d="M128.063,246.953c-65.632,0-119.027-53.396-119.027-119.027   c0-65.632,53.395-119.027,119.027-119.027c65.631,0,119.027,53.395,119.027,119.027   C247.09,193.558,193.694,246.953,128.063,246.953z M128.063,14.527c-62.528,0-113.399,50.871-113.399,113.399   c0,62.528,50.871,113.399,113.399,113.399c62.528,0,113.399-50.871,113.399-113.399C241.462,65.398,190.591,14.527,128.063,14.527z   " fill="url(#SVGID_1_)"/><linearGradient gradientUnits="userSpaceOnUse" id="SVGID_2_" x1="93.0469" x2="163.0811" y1="188.585" y2="67.2822"><stop offset="0" style="stop-color:#2E7CBC"/><stop offset="1" style="stop-color:#6ADEFF"/></linearGradient><path d="M188.585,82.083L188.585,82.083c-0.017-0.017-0.036-0.028-0.055-0.045   c-0.075-0.067-0.15-0.134-0.234-0.191c-0.374-0.256-0.813-0.365-1.248-0.338H69.109c-0.562-0.044-1.14,0.14-1.569,0.571   c-0.002,0.004-0.006,0.008-0.008,0.011c-0.365,0.363-0.591,0.864-0.591,1.418v88.853c0,0.977,0.702,1.788,1.629,1.963   c0.037,0.007,0.075,0.007,0.111,0.011c0.086,0.014,0.171,0.027,0.261,0.027h118.243c1.104,0,2-0.896,2-2.001V83.508   C189.185,82.951,188.954,82.447,188.585,82.083z M182.328,85.509l-51.275,51.275c-1.648,1.647-4.331,1.647-5.98,0L73.8,85.509   H182.328z M70.942,88.311l39.615,39.616l-39.615,39.618V88.311z M73.785,170.36l39.602-39.604l8.857,8.857   c1.604,1.604,3.71,2.406,5.819,2.406c2.107,0,4.215-0.802,5.82-2.406l8.855-8.856l39.606,39.604H73.785z M185.183,167.54   l-39.615-39.612l39.615-39.614V167.54z" fill="url(#SVGID_2_)"/></g></svg>